<svg width="148" height="126" viewBox="0 0 148 126" fill="none" xmlns="http://www.w3.org/2000/svg">
<path d="M73.2981 0L35.1346 22.0373V66.1117L73.2981 88.149L111.462 66.1117V22.0373L73.2981 0ZM103.025 61.2911L73.2407 78.4503L43.5134 61.2911V26.8579L73.2981 9.6413L103.083 26.8579V61.2911H103.025Z" fill="white"/>
<path d="M95.9091 30.8177V57.3313L80.2421 66.5708V51.9367H66.354V66.5708L50.6869 57.3313V30.8177L66.354 21.5781V36.614H80.2421V21.5781L95.9091 30.8177Z" fill="white"/>
<path d="M18.5503 125.623H14.1246V116.96H4.37863V125.623H0V105.048H4.37863V113.146H14.0775V105.048H18.5032V125.623H18.5503Z" fill="white"/>
<path d="M42.5622 125.623H28.0139V105.048H42.5622V108.909H32.3925V113.241H42.3739V117.101H32.3925V121.762H42.5622V125.623Z" fill="white"/>
<path d="M61.3477 126C58.2403 126 55.6037 125.011 53.5321 123.034C51.4605 121.056 50.3776 118.514 50.3776 115.359C50.3776 112.205 51.4134 109.662 53.5321 107.685C55.6037 105.707 58.2403 104.719 61.3477 104.719C65.2085 104.719 68.0805 106.414 69.9637 109.757L66.1972 111.593C65.7264 110.745 65.0672 109.992 64.2197 109.427C63.3252 108.862 62.3835 108.579 61.3477 108.579C59.4645 108.579 57.9108 109.239 56.7337 110.51C55.5096 111.781 54.8975 113.382 54.8975 115.359C54.8975 117.337 55.5096 118.938 56.7337 120.209C57.9578 121.48 59.5115 122.139 61.3477 122.139C62.3835 122.139 63.3252 121.857 64.2197 121.292C65.1143 120.727 65.7734 120.02 66.1972 119.126L69.9637 120.962C67.9863 124.305 65.1143 126 61.3477 126Z" fill="white"/>
<path d="M87.1489 125.623H82.7231V108.909H76.6967V105.048H93.1283V108.909H87.1489V125.623Z" fill="white"/>
<path d="M111.114 126C108.006 126 105.417 125.011 103.392 122.987C101.368 120.962 100.332 118.42 100.332 115.359C100.332 112.252 101.368 109.709 103.392 107.732C105.417 105.707 108.006 104.719 111.114 104.719C114.221 104.719 116.81 105.707 118.835 107.732C120.859 109.709 121.895 112.299 121.895 115.406C121.895 118.514 120.859 121.056 118.835 123.081C116.81 125.011 114.221 126 111.114 126ZM106.594 120.209C107.724 121.48 109.23 122.139 111.114 122.139C112.997 122.139 114.503 121.48 115.633 120.209C116.763 118.938 117.375 117.337 117.375 115.359C117.375 113.382 116.81 111.781 115.633 110.51C114.503 109.239 112.95 108.579 111.114 108.579C109.23 108.579 107.724 109.239 106.594 110.51C105.464 111.781 104.899 113.382 104.899 115.359C104.899 117.29 105.464 118.89 106.594 120.209Z" fill="white"/>
<path d="M147.037 125.623H141.999L137.95 118.325H134.749V125.623H130.37V105.048H140.022C142.14 105.048 143.835 105.66 145.06 106.885C146.284 108.109 146.943 109.709 146.943 111.687C146.943 113.382 146.519 114.747 145.625 115.783C144.73 116.819 143.694 117.478 142.423 117.808L147.037 125.623ZM139.363 114.465C140.257 114.465 141.01 114.229 141.575 113.711C142.14 113.194 142.423 112.534 142.423 111.687C142.423 110.839 142.14 110.18 141.575 109.662C141.01 109.144 140.257 108.909 139.363 108.909H134.749V114.465H139.363Z" fill="white"/>
</svg>
