<svg width="54" height="57" viewBox="0 0 54 57" fill="none" xmlns="http://www.w3.org/2000/svg">
<g id="Group 121">
<path id="Vector" d="M39.3686 0.642822H14.8817C6.91222 0.642822 0.428772 7.40816 0.428772 15.7241V41.2761C0.428772 49.5917 6.91222 56.357 14.8817 56.357H39.369C47.3381 56.357 53.8215 49.5917 53.8215 41.2761V15.7241C53.8215 7.40816 47.3381 0.642822 39.3686 0.642822V0.642822ZM50.6914 41.2761C50.6914 47.7907 45.6121 53.0908 39.3686 53.0908H14.8817C8.63818 53.0908 3.55888 47.7907 3.55888 41.2761V15.7241C3.55888 9.20917 8.63818 3.90903 14.8817 3.90903H39.369C45.6121 3.90903 50.6914 9.20917 50.6914 15.7241V41.2761Z" fill="#878787"/>
<path id="Vector_2" d="M27.1246 13.2664C19.0745 13.2664 12.5255 20.1001 12.5255 28.5003C12.5255 36.9004 19.0745 43.7342 27.1246 43.7342C35.1748 43.7342 41.7238 36.9004 41.7238 28.5003C41.7238 20.1001 35.1748 13.2664 27.1246 13.2664ZM27.1246 40.468C20.8009 40.468 15.6556 35.0994 15.6556 28.5003C15.6556 21.9016 20.8009 16.5326 27.1246 16.5326C33.4488 16.5326 38.5937 21.9016 38.5937 28.5003C38.5937 35.0994 33.4488 40.468 27.1246 40.468Z" fill="#878787"/>
<path id="Vector_3" d="M42.0738 7.85571C39.6948 7.85571 37.7599 9.8752 37.7599 12.3572C37.7599 14.8395 39.6948 16.859 42.0738 16.859C44.4527 16.859 46.3881 14.8395 46.3881 12.3572C46.3881 9.87477 44.4527 7.85571 42.0738 7.85571ZM42.0738 13.5924C41.4212 13.5924 40.89 13.0381 40.89 12.3572C40.89 11.6758 41.4212 11.1219 42.0738 11.1219C42.7268 11.1219 43.2579 11.6758 43.2579 12.3572C43.2579 13.0381 42.7268 13.5924 42.0738 13.5924Z" fill="#878787"/>
</g>
</svg>
