<svg width="57" height="57" viewBox="0 0 57 57" fill="none" xmlns="http://www.w3.org/2000/svg">
<path id="Vector" d="M48.2265 8.7388C43.0157 3.51559 36.0763 0.642822 28.7016 0.642822C13.4796 0.642822 1.09316 13.0293 1.09316 28.2512C1.09316 33.1138 2.36166 37.8644 4.77428 42.0555L0.856873 56.3571L15.4943 52.5143C19.5236 54.7155 24.0629 55.8721 28.6891 55.8721H28.7016C43.9111 55.8721 56.5712 43.4856 56.5712 28.2637C56.5712 20.889 53.4372 13.962 48.2265 8.7388ZM28.7016 51.2209C24.5728 51.2209 20.531 50.1141 17.0115 48.0248L16.1783 47.5274L7.49782 49.8032L9.81095 41.3342L9.26376 40.4636C6.96306 36.8074 5.75675 32.5915 5.75675 28.2512C5.75675 15.6036 16.0539 5.30641 28.714 5.30641C34.8451 5.30641 40.603 7.69416 44.9309 12.0344C49.2587 16.3746 51.92 22.1326 51.9076 28.2637C51.9076 40.9238 41.3492 51.2209 28.7016 51.2209ZM41.287 34.0341C40.603 33.6859 37.208 32.0194 36.5737 31.7956C35.9395 31.5593 35.4793 31.4473 35.0192 32.1438C34.559 32.8402 33.2408 34.3823 32.8304 34.8549C32.4324 35.315 32.0221 35.3772 31.3381 35.029C27.2838 33.0019 24.6225 31.41 21.9487 26.8211C21.2398 25.6023 22.6576 25.6894 23.9758 23.0529C24.1997 22.5928 24.0877 22.1948 23.9136 21.8466C23.7395 21.4984 22.3591 18.1033 21.787 16.7229C21.2274 15.3797 20.6553 15.5663 20.2325 15.5414C19.8346 15.5165 19.3744 15.5165 18.9143 15.5165C18.4541 15.5165 17.708 15.6907 17.0737 16.3746C16.4395 17.0711 14.6611 18.7375 14.6611 22.1326C14.6611 25.5277 17.1359 28.8109 17.4717 29.271C17.8199 29.7312 22.3342 36.6954 29.2612 39.6926C33.6388 41.5829 35.355 41.7445 37.5437 41.4212C38.8744 41.2222 41.6228 39.7547 42.1949 38.138C42.7669 36.5213 42.7669 35.1409 42.5928 34.8549C42.4312 34.544 41.971 34.3699 41.287 34.0341Z" fill="#878787"/>
</svg>
