<svg width="19" height="18" viewBox="0 0 19 18" fill="none" xmlns="http://www.w3.org/2000/svg">
<path d="M14.6819 10.9902C14.4469 11.2179 14.339 11.5471 14.3925 11.8701L15.1989 16.3331C15.267 16.7114 15.1073 17.0942 14.7907 17.3128C14.4805 17.5396 14.0678 17.5668 13.7294 17.3854L9.71174 15.2899C9.57204 15.2156 9.41692 15.1757 9.25817 15.1711H9.01234C8.92707 15.1838 8.84362 15.211 8.76742 15.2528L4.74885 17.3582C4.55019 17.458 4.32522 17.4934 4.10479 17.458C3.56777 17.3564 3.20946 16.8448 3.29745 16.305L4.10479 11.842C4.15831 11.5163 4.05036 11.1852 3.81542 10.9539L0.539787 7.77895C0.265835 7.51316 0.170587 7.11402 0.29577 6.75389C0.417325 6.39467 0.727562 6.13251 1.1022 6.07355L5.61062 5.41951C5.95351 5.38413 6.25468 5.1755 6.40889 4.86707L8.3955 0.794077C8.44267 0.703365 8.50345 0.619909 8.57692 0.549153L8.65856 0.485655C8.7012 0.438484 8.75018 0.399478 8.80461 0.367728L8.90349 0.331443L9.0577 0.267944H9.4396C9.78068 0.303322 10.0809 0.507426 10.2379 0.81222L12.2508 4.86707C12.3959 5.1637 12.678 5.36962 13.0037 5.41951L17.5121 6.07355C17.8931 6.12798 18.2115 6.39104 18.3376 6.75389C18.4564 7.11765 18.3539 7.51679 18.0745 7.77895L14.6819 10.9902Z" fill="#DE8F32"/>
</svg>
