<svg width="28" height="21" viewBox="0 0 28 21" fill="none" xmlns="http://www.w3.org/2000/svg">
<path d="M27.5843 7.04724C27.2146 6.63438 26.6599 6.39753 26.0624 6.39753H20.67L17.7459 0.438136C17.5646 0.068646 17.081 -0.100207 16.6658 0.0612474C16.2507 0.222604 16.0611 0.653035 16.2424 1.02257L18.8797 6.39758H9.12029L11.7576 1.02257C11.9389 0.653035 11.7493 0.222653 11.3341 0.0612474C10.919 -0.100207 10.4354 0.0685486 10.2541 0.438136L7.33004 6.39758H1.93764C1.34012 6.39758 0.785425 6.63438 0.415683 7.04729C0.0527222 7.45265 -0.0812075 7.97376 0.0482378 8.47716L2.92792 19.6723C3.129 20.4541 3.90595 21 4.81731 21H23.1827C24.0941 21 24.871 20.4541 25.0721 19.6723L27.9518 8.47711C28.0812 7.97372 27.9473 7.4526 27.5843 7.04724ZM23.1827 19.5397H4.81731C4.67803 19.5397 4.55602 19.4584 4.5272 19.3464L1.64752 8.15128C1.62493 8.06342 1.66283 7.99732 1.69871 7.95736C1.73196 7.92017 1.80726 7.85782 1.93764 7.85782H6.61358L6.39871 8.29575C6.21742 8.66529 6.40697 9.09567 6.82216 9.25707C6.92902 9.29864 7.04036 9.31831 7.15001 9.31831C7.46621 9.31831 7.76754 9.15461 7.90218 8.88023L8.40383 7.85792H19.5963L20.0979 8.88023C20.2326 9.15466 20.5339 9.31831 20.8501 9.31831C20.9597 9.31831 21.0711 9.29864 21.1779 9.25707C21.5931 9.09572 21.7827 8.66529 21.6014 8.29575L21.3865 7.85782H26.0625C26.1928 7.85782 26.2682 7.92017 26.3014 7.95736C26.3372 7.99737 26.3752 8.06347 26.3526 8.15123L23.4729 19.3464C23.444 19.4584 23.322 19.5397 23.1827 19.5397Z" fill="white"/>
</svg>
