<svg width="26" height="25" viewBox="0 0 26 25" fill="none" xmlns="http://www.w3.org/2000/svg">
<path d="M11.5759 0C5.50542 0 0.566406 4.93901 0.566406 11.0095C0.566406 17.0803 5.50542 22.0189 11.5759 22.0189C17.6467 22.0189 22.5853 17.0803 22.5853 11.0095C22.5853 4.93901 17.6467 0 11.5759 0ZM11.5759 19.9865C6.62602 19.9865 2.59893 15.9594 2.59893 11.0095C2.59893 6.05967 6.62602 2.03252 11.5759 2.03252C16.5257 2.03252 20.5528 6.05962 20.5528 11.0095C20.5528 15.9593 16.5257 19.9865 11.5759 19.9865Z" fill="white"/>
<path d="M25.2685 23.2652L19.4419 17.4386C19.0449 17.0416 18.4019 17.0416 18.0049 17.4386C17.6079 17.8353 17.6079 18.479 18.0049 18.8756L23.8315 24.7022C24.03 24.9007 24.2898 25 24.55 25C24.8098 25 25.07 24.9007 25.2685 24.7022C25.6655 24.3055 25.6655 23.6619 25.2685 23.2652Z" fill="white"/>
</svg>
