<svg width="150" height="25" viewBox="0 0 150 25" fill="none" xmlns="http://www.w3.org/2000/svg">
<g id="&#208;&#158;&#209;&#134;&#208;&#181;&#208;&#189;&#208;&#186;&#208;&#176;">
<path id="Vector" d="M21.0321 24.3335L13 20.2543L4.96795 24.3335L6.5019 15.6938L0 9.57486L8.98121 8.31467L13 0.333496L17.0188 8.31467L26 9.57486L19.4981 15.6937L21.0321 24.3335Z" fill="black"/>
<path id="Vector_2" d="M83.0321 24.3335L75 20.2543L66.9679 24.3335L68.5019 15.6938L62 9.57486L70.9812 8.31467L75 0.333496L79.0188 8.31467L88 9.57486L81.4981 15.6937L83.0321 24.3335Z" fill="black"/>
<path id="Vector_3" d="M114.032 24.3335L106 20.2543L97.9679 24.3335L99.5019 15.6938L93 9.57486L101.981 8.31467L106 0.333496L110.019 8.31467L119 9.57486L112.498 15.6937L114.032 24.3335Z" fill="black"/>
<path id="Vector_4" d="M52.0321 24.3335L44 20.2543L35.9679 24.3335L37.5019 15.6938L31 9.57486L39.9812 8.31467L44 0.333496L48.0188 8.31467L57 9.57486L50.4981 15.6937L52.0321 24.3335Z" fill="black"/>
<path id="Vector_5" d="M145.032 24.3335L137 20.2543L128.968 24.3335L130.502 15.6938L124 9.57486L132.981 8.31467L137 0.333496L141.019 8.31467L150 9.57486L143.498 15.6937L145.032 24.3335Z" fill="black"/>
</g>
</svg>
