<svg width="17" height="27" viewBox="0 0 17 27" fill="none" xmlns="http://www.w3.org/2000/svg">
  <path fill-rule="evenodd" clip-rule="evenodd" d="M15.3152 16.0573C15.2155 16.544 14.7808 16.8859 14.2855 16.8859H11.4787V25.2675C11.4787 25.8445 11.0017 26.2999 10.4285 26.2999H5.60721C5.03398 26.2999 4.55702 25.8445 4.55702 25.2675V16.8859H1.7502C1.17697 16.8859 0.700012 16.4304 0.700012 15.8534V11.1465C0.700012 10.5695 1.17697 10.1141 1.7502 10.1141H4.55702V5.65484C4.55702 2.91569 6.83696 0.699951 9.6248 0.699951H15.2498C15.8231 0.699951 16.3 1.1554 16.3 1.73237V6.43952C16.3 7.01625 15.8231 7.47194 15.2498 7.47194H11.4787V10.1141H15.2498C15.5617 10.1141 15.8592 10.2506 16.0596 10.4891C16.2605 10.7282 16.342 11.0444 16.2793 11.3503C16.2793 11.3503 16.2793 11.3503 16.2793 11.3503L15.3152 16.0573ZM14.2855 16.5859C14.6432 16.5859 14.9511 16.3394 15.0213 15.9971L15.9854 11.2901C16.0295 11.0749 15.9725 10.8518 15.8299 10.682C15.6874 10.5125 15.4745 10.4141 15.2498 10.4141H11.1787V7.17194H15.2498C15.6642 7.17194 16 6.84388 16 6.43952V1.73237C16 1.32782 15.6642 0.999951 15.2498 0.999951H9.6248C6.99583 0.999951 4.85702 3.08812 4.85702 5.65484V10.4141H1.7502C1.33584 10.4141 1.00001 10.7419 1.00001 11.1465V15.8534C1.00001 16.258 1.33584 16.5859 1.7502 16.5859H4.85702V25.2675C4.85702 25.6721 5.19285 26 5.60721 26H10.4285C10.8429 26 11.1787 25.6721 11.1787 25.2675V16.5859H14.2855ZM13.9671 12.1789H10.4285C9.85529 12.1789 9.37833 11.7234 9.37833 11.1465V6.43952C9.37833 5.86255 9.85529 5.4071 10.4285 5.4071H14.1996V2.76479H9.6248C7.98205 2.76479 6.65739 4.0683 6.65739 5.65484V11.1465C6.65739 11.7234 6.18043 12.1789 5.60721 12.1789H2.80038V14.821H5.60721C6.18043 14.821 6.65739 15.2765 6.65739 15.8534V24.2351H9.37833V15.8534C9.37833 15.2765 9.85529 14.821 10.4285 14.821H13.4258L13.9671 12.1789ZM10.4285 11.8789C10.0142 11.8789 9.67833 11.551 9.67833 11.1465V6.43952C9.67833 6.03497 10.0142 5.7071 10.4285 5.7071H14.4996V2.46479H9.6248C7.82318 2.46479 6.35739 3.89588 6.35739 5.65484V11.1465C6.35739 11.551 6.02157 11.8789 5.60721 11.8789H2.50038V15.121H5.60721C6.02157 15.121 6.35739 15.4489 6.35739 15.8534V24.5351H9.67833V15.8534C9.67833 15.4489 10.0142 15.121 10.4285 15.121H13.6705L14.3348 11.8789H10.4285Z" fill="white"/>
</svg>
