<svg width="23" height="24" viewBox="0 0 23 24" fill="none" xmlns="http://www.w3.org/2000/svg">
<g clip-path="url(#clip0_1_43)">
<path d="M16.7741 0H6.22588C2.79287 0 0 2.9143 0 6.49657V17.5036C0 21.0857 2.79287 24 6.22588 24H16.7743C20.2071 24 23 21.0857 23 17.5036V6.49657C23 2.9143 20.2071 0 16.7741 0V0ZM21.6516 17.5036C21.6516 20.3098 19.4636 22.593 16.7741 22.593H6.22588C3.53636 22.593 1.34836 20.3098 1.34836 17.5036V6.49657C1.34836 3.69012 3.53636 1.40698 6.22588 1.40698H16.7743C19.4636 1.40698 21.6516 3.69012 21.6516 6.49657V17.5036Z" fill="white"/>
<path fill-rule="evenodd" clip-rule="evenodd" d="M16.9741 -0.196759V-0.199951H6.22587C2.67447 -0.199951 -0.200012 2.812 -0.200012 6.49662V17.5036C-0.200012 21.1881 2.67447 24.2 6.22587 24.2H16.7742C20.3255 24.2 23.1999 21.1881 23.1999 17.5036V6.49662C23.1999 2.88142 20.4328 -0.0862157 16.9741 -0.196759ZM16.7741 22.393C19.3452 22.393 21.4516 20.2075 21.4516 17.5036V6.49662C21.4516 3.79251 19.3452 1.60703 16.7742 1.60703H6.22587C3.65474 1.60703 1.54834 3.79252 1.54834 6.49662V17.5036C1.54834 20.2075 3.65474 22.393 6.22587 22.393H16.7741ZM16.7741 4.88311e-05C20.2071 4.88311e-05 22.9999 2.91435 22.9999 6.49662V17.5036C22.9999 21.0857 20.2071 24 16.7742 24H6.22587C2.79286 24 -1.22041e-05 21.0857 -1.22041e-05 17.5036V6.49662C-1.22041e-05 2.91435 2.79286 4.88311e-05 6.22587 4.88311e-05H16.7741ZM16.7741 22.593C19.4636 22.593 21.6516 20.3099 21.6516 17.5036V6.49662C21.6516 3.69017 19.4636 1.40703 16.7742 1.40703H6.22587C3.53635 1.40703 1.34834 3.69017 1.34834 6.49662V17.5036C1.34834 20.3099 3.53635 22.593 6.22587 22.593H16.7741Z" fill="white"/>
<path d="M11.5 5.43774C8.03224 5.43774 5.21112 8.38153 5.21112 12C5.21112 15.6186 8.03224 18.5624 11.5 18.5624C14.9677 18.5624 17.7889 15.6186 17.7889 12C17.7889 8.38153 14.9677 5.43774 11.5 5.43774ZM11.5 17.1554C8.77591 17.1554 6.55948 14.8428 6.55948 12C6.55948 9.15752 8.77591 6.84472 11.5 6.84472C14.2243 6.84472 16.4405 9.15752 16.4405 12C16.4405 14.8428 14.2243 17.1554 11.5 17.1554Z" fill="white"/>
<path fill-rule="evenodd" clip-rule="evenodd" d="M5.01111 12.0001C5.01111 8.27922 7.91384 5.23779 11.5 5.23779C15.0861 5.23779 17.9889 8.27922 17.9889 12.0001C17.9889 15.721 15.0861 18.7624 11.5 18.7624C7.91384 18.7624 5.01111 15.721 5.01111 12.0001ZM6.75946 12.0001C6.75946 14.7404 8.89429 16.9554 11.5 16.9554C14.1058 16.9554 16.2405 14.7405 16.2405 12.0001C16.2405 9.25992 14.1058 7.04477 11.5 7.04477C8.89429 7.04477 6.75946 9.25992 6.75946 12.0001ZM5.21111 12.0001C5.21111 8.38157 8.03223 5.43779 11.5 5.43779C14.9677 5.43779 17.7889 8.38157 17.7889 12.0001C17.7889 15.6186 14.9677 18.5624 11.5 18.5624C8.03223 18.5624 5.21111 15.6186 5.21111 12.0001ZM6.55946 12.0001C6.55946 14.8428 8.7759 17.1554 11.5 17.1554C14.2242 17.1554 16.4405 14.8428 16.4405 12.0001C16.4405 9.15757 14.2242 6.84477 11.5 6.84477C8.7759 6.84477 6.55946 9.15757 6.55946 12.0001Z" fill="white"/>
<path d="M17.9392 3.10718C16.9144 3.10718 16.0809 3.97711 16.0809 5.04626C16.0809 6.11559 16.9144 6.98553 17.9392 6.98553C18.964 6.98553 19.7977 6.11559 19.7977 5.04626C19.7977 3.97693 18.964 3.10718 17.9392 3.10718ZM17.9392 5.57836C17.6581 5.57836 17.4293 5.3396 17.4293 5.04626C17.4293 4.75274 17.6581 4.51416 17.9392 4.51416C18.2205 4.51416 18.4493 4.75274 18.4493 5.04626C18.4493 5.3396 18.2205 5.57836 17.9392 5.57836Z" fill="white"/>
<path fill-rule="evenodd" clip-rule="evenodd" d="M15.881 5.04631C15.881 3.87482 16.7961 2.90723 17.9393 2.90723C19.0824 2.90723 19.9977 3.8746 19.9977 5.04631C19.9977 6.21799 19.0824 7.18558 17.9393 7.18558C16.7961 7.18558 15.881 6.21797 15.881 5.04631ZM17.6293 5.04631C17.6293 5.23729 17.7766 5.37841 17.9393 5.37841C18.1022 5.37841 18.2494 5.23725 18.2494 5.04631C18.2494 4.85523 18.1023 4.71421 17.9393 4.71421C17.7765 4.71421 17.6293 4.85519 17.6293 5.04631ZM16.081 5.04631C16.081 3.97716 16.9145 3.10723 17.9393 3.10723C18.964 3.10723 19.7977 3.97698 19.7977 5.04631C19.7977 6.11564 18.964 6.98558 17.9393 6.98558C16.9145 6.98558 16.081 6.11564 16.081 5.04631ZM17.4293 5.04631C17.4293 5.33964 17.6582 5.57841 17.9393 5.57841C18.2206 5.57841 18.4494 5.33964 18.4494 5.04631C18.4494 4.75279 18.2206 4.51421 17.9393 4.51421C17.6582 4.51421 17.4293 4.75279 17.4293 5.04631Z" fill="white"/>
</g>
<defs>
<clipPath id="clip0_1_43">
<rect width="23" height="24" fill="white"/>
</clipPath>
</defs>
</svg>
