<svg width="25" height="17" viewBox="0 0 25 17" fill="none" xmlns="http://www.w3.org/2000/svg">
  <path fill-rule="evenodd" clip-rule="evenodd" d="M1.23962 1.34788L12.5 10.1964L23.7607 1.34765L23.0969 1.09724C22.9617 1.04625 22.813 1.01666 22.6563 1.01666H2.34377C2.18713 1.01666 2.03836 1.04616 1.90298 1.0973L1.23962 1.34788ZM23.8375 2.14519L12.7651 10.8456C12.6936 10.9017 12.5998 10.9333 12.5 10.9333C12.4001 10.9333 12.3064 10.9018 12.235 10.8457L1.16249 2.14519V14.875C1.16258 15.5226 1.72956 15.9833 2.34377 15.9833H22.6562C23.2704 15.9833 23.8375 15.5227 23.8375 14.8749V2.14519ZM11.9881 11.1604C12.1353 11.2759 12.3177 11.3333 12.5 11.3333C12.6823 11.3333 12.8647 11.2759 13.0119 11.1604L23.4375 2.96821V14.8749C23.4375 15.2658 23.0873 15.5833 22.6562 15.5833H2.34377C1.91271 15.5833 1.56255 15.2658 1.56249 14.875V2.96821L11.9881 11.1604ZM2.34377 0.4H22.6562C23.7655 0.4 24.6 1.2101 24.6 2.12501V14.875C24.6 15.7899 23.7655 16.6 22.6562 16.6H2.34377C1.23447 16.6 0.4 15.7899 0.4 14.875V2.12501C0.4 1.2101 1.23447 0.4 2.34377 0.4ZM2.04432 1.4715C2.13664 1.43663 2.23762 1.41666 2.34377 1.41666H22.6563C22.7624 1.41666 22.8634 1.43667 22.9557 1.4715L12.5 9.6877L2.04432 1.4715ZM22.6562 0H2.34377C1.05133 0 0 0.953208 0 2.12501V14.875C0 16.0468 1.05133 17 2.34377 17H22.6562C23.9487 17 25 16.0468 25 14.875V2.12501C25 0.953208 23.9487 0 22.6562 0Z" fill="white"/>
</svg>
